<svg xmlns="http://www.w3.org/2000/svg" viewBox="617.72 91.10 129.75 94.29" preserveAspectRatio="xMidYMid meet"><g><path class="op kz" data-code="kz" d="M742.67,113.29L740.55,115.14L738.25,115.40L738.12,118.19L736.57,119.44L731.06,118.53L729.06,123.50L727.63,124.12L722.13,125.23L724.63,130.05L722.73,130.78L722.95,132.36L721.24,131.95L719.84,130.96L715.72,130.66L711.11,130.59L710.11,130.89L706.15,129.73L704.57,130.30L704.14,131.94L699.57,130.98L697.74,131.38L697.12,132.60L695.53,133.11L691.86,135.05L690.65,137.03L689.61,137.05L688.85,135.73L685.32,135.64L684.75,133.37L683.40,133.35L683.61,130.56L680.28,128.53L675.52,128.75L672.26,129.15L669.61,126.65L667.34,125.60L663.03,123.61L662.51,123.37L655.36,125.01L655.47,135.25L654.05,135.39L652.10,133.21L650.22,132.43L647.07,133.01L645.84,133.94L645.69,133.26L646.37,132.10L645.84,131.13L642.62,130.18L641.37,127.69L639.83,126.99L639.74,126.08L642.44,126.35L642.55,124.32L644.91,123.87L647.34,124.28L647.84,121.57L647.34,119.85L644.56,119.99L642.20,119.31L638.99,120.53L636.40,121.11L634.98,120.66L635.27,119.23L633.50,117.38L631.43,117.46L629.08,115.57L630.68,113.47L629.87,112.90L632.09,109.85L634.94,111.46L635.29,109.43L641.02,106.41L645.36,106.34L651.48,108.26L654.77,109.38L657.72,108.21L662.12,108.16L665.68,109.60L666.48,108.77L670.39,108.89L671.08,107.57L666.58,105.67L669.25,104.31L668.73,103.55L671.39,102.84L669.39,100.93L670.66,99.98L681.05,99.02L682.41,98.33L689.36,97.31L691.86,96.15L696.85,96.75L697.73,99.63L700.63,98.95L704.19,99.90L703.96,101.42L706.63,101.26L713.59,98.64L712.57,99.51L716.12,101.66L722.32,108.71L723.80,107.25L727.63,108.85L731.62,108.14L733.16,108.64L734.49,110.24L736.43,110.79L737.62,111.97L741.20,111.59L742.67,113.29Z"/><path class="op uz" data-code="uz" d="M655.47,135.25L655.36,125.01L662.51,123.37L663.03,123.61L667.34,125.60L669.61,126.65L672.26,129.15L675.52,128.75L680.28,128.53L683.61,130.56L683.40,133.35L684.75,133.37L685.32,135.64L688.85,135.73L689.61,137.05L690.65,137.03L691.86,135.05L695.53,133.11L697.12,132.60L697.95,132.87L695.61,134.66L697.66,135.71L699.64,135.02L702.93,136.48L699.38,138.48L697.26,138.21L696.12,138.28L695.72,137.51L696.30,136.22L692.59,136.86L691.70,138.65L690.38,140.18L688.06,140.05L687.34,141.28L689.38,141.94L689.98,144.01L688.42,146.82L686.32,146.24L684.78,146.22L684.85,144.51L681.16,143.32L678.25,141.97L676.44,140.66L673.27,138.74L671.90,135.88L670.97,135.37L667.96,135.50L666.90,134.93L666.60,132.71L662.86,131.25L660.52,132.86L658.15,133.82L658.60,135.21L655.47,135.25Z"/><path class="op af" data-code="af" d="M684.78,146.22L686.32,146.24L688.42,146.82L689.27,147.16L691.28,146.27L692.21,146.80L693.11,145.53L694.77,145.59L695.20,145.18L695.49,144.06L696.69,143.09L698.19,143.72L697.89,144.58L698.73,144.71L698.47,147.04L699.57,147.95L700.54,147.36L701.77,147.09L703.50,145.84L705.42,146.05L708.28,146.06L708.78,146.85L707.16,147.17L705.75,147.68L702.56,148.00L699.58,148.58L697.95,149.79L698.61,150.97L698.93,152.35L697.54,153.52L697.66,154.59L696.90,155.59L694.25,155.50L695.35,157.34L693.58,158.04L692.40,159.71L692.55,161.38L691.47,162.16L690.44,161.91L688.32,162.27L688.01,163.05L685.94,163.04L684.40,164.61L684.30,166.98L680.69,168.13L678.75,167.89L678.19,168.50L676.53,168.14L673.75,168.56L669.10,167.14L671.62,164.62L671.39,162.84L669.29,162.37L669.07,160.60L668.16,158.38L669.35,156.87L668.14,156.46L668.90,154.43L670.03,150.97L672.87,152.03L674.96,151.66L675.54,150.40L677.73,149.98L679.30,149.13L679.85,146.91L682.19,146.38L682.63,145.38L683.94,146.13L684.78,146.22Z"/><path class="op tj" data-code="tj" d="M688.42,146.82L689.98,144.01L689.38,141.94L687.34,141.28L688.06,140.05L690.38,140.18L691.70,138.65L692.59,136.86L696.30,136.22L695.72,137.51L696.12,138.28L697.26,138.21L696.25,139.07L693.22,138.60L692.96,140.20L695.97,139.99L699.40,140.89L704.66,140.47L705.36,143.04L706.27,142.76L707.96,143.39L707.86,144.47L708.28,146.06L705.42,146.05L703.50,145.84L701.77,147.09L700.54,147.36L699.57,147.95L698.47,147.04L698.73,144.71L697.89,144.58L698.19,143.72L696.69,143.09L695.49,144.06L695.20,145.18L694.77,145.59L693.11,145.53L692.21,146.80L691.28,146.27L689.27,147.16L688.42,146.82Z"/><path class="op kg" data-code="kg" d="M697.12,132.60L697.74,131.38L699.57,130.98L704.14,131.94L704.57,130.30L706.15,129.73L710.11,130.89L711.11,130.59L715.72,130.66L719.84,130.96L721.24,131.95L722.95,132.36L722.56,132.99L718.18,134.50L717.19,135.60L713.63,135.92L712.58,137.70L709.64,137.33L707.72,137.87L705.06,139.18L705.45,139.83L704.66,140.47L699.40,140.89L695.97,139.99L692.96,140.20L693.22,138.60L696.25,139.07L697.26,138.21L699.38,138.48L702.93,136.48L699.64,135.02L697.66,135.71L695.61,134.66L697.95,132.87L697.12,132.60Z"/><path class="op tm" data-code="tm" d="M645.84,133.94L647.07,133.01L650.22,132.43L652.10,133.21L654.05,135.39L655.47,135.25L658.60,135.21L658.15,133.82L660.52,132.86L662.86,131.25L666.60,132.71L666.90,134.93L667.96,135.50L670.97,135.37L671.90,135.88L673.27,138.74L676.44,140.66L678.25,141.97L681.16,143.32L684.85,144.51L684.78,146.22L683.94,146.13L682.63,145.38L682.19,146.38L679.85,146.91L679.30,149.13L677.73,149.98L675.54,150.40L674.96,151.66L672.87,152.03L670.03,150.97L669.79,148.63L667.72,148.53L664.54,146.08L662.33,145.77L659.25,144.36L657.28,144.11L656.06,144.62L654.20,144.54L652.23,146.13L649.79,146.67L649.27,144.71L649.67,141.80L647.51,140.86L648.22,138.96L646.38,138.80L646.99,136.46L649.61,137.14L652.05,136.25L650.03,134.58L649.23,132.99L646.99,133.70L646.71,135.74L645.84,133.94Z"/><path class="op ir" data-code="ir" d="M634.91,166.87L633.38,165.41L633.35,163.93L632.46,163.93L632.92,161.92L631.49,159.81L628.09,158.29L626.16,155.64L626.81,153.48L628.20,152.52L627.99,150.89L626.17,150.06L624.37,146.75L622.85,144.52L623.40,143.66L622.53,140.48L624.43,139.69L624.87,140.73L626.28,142.02L628.18,142.38L629.19,142.30L632.46,140.25L633.50,140.05L634.32,140.87L633.37,142.24L635.10,143.69L635.79,143.56L636.67,145.61L639.30,146.18L641.23,147.58L645.18,148.05L649.52,147.32L649.79,146.67L652.23,146.13L654.20,144.54L656.06,144.62L657.28,144.11L659.25,144.36L662.33,145.77L664.54,146.08L667.72,148.53L669.79,148.63L670.03,150.97L668.90,154.43L668.14,156.46L669.35,156.87L668.16,158.38L669.07,160.60L669.29,162.37L671.39,162.84L671.62,164.62L669.10,167.14L670.47,168.60L671.59,170.28L674.25,171.50L674.32,173.95L675.65,174.40L675.88,175.68L671.88,177.11L670.83,180.34L665.60,179.50L662.57,178.86L659.44,178.50L658.26,175.09L656.93,174.60L654.79,175.10L651.99,176.44L648.60,175.52L645.79,173.39L643.12,172.60L641.26,169.96L639.21,166.25L637.72,166.71L635.95,165.78L634.91,166.87Z"/></g></svg>